<mxfile host="app.diagrams.net" agent="Mozilla/5.0 (Windows NT 10.0; Win64; x64) AppleWebKit/537.36 (KHTML, like Gecko) Chrome/133.0.0.0 Safari/537.36" version="26.0.16">
  <diagram name="Page-1" id="Tjnf8F_MXJ03UBufj3Ec">
    <mxGraphModel dx="1267" dy="1970" grid="1" gridSize="10" guides="1" tooltips="1" connect="1" arrows="1" fold="1" page="1" pageScale="1" pageWidth="850" pageHeight="1100" math="0" shadow="0">
      <root>
        <mxCell id="0" />
        <mxCell id="1" parent="0" />
        <mxCell id="bgIWfNE-KOHiwSR-T4Z0-4" value="" style="whiteSpace=wrap;html=1&#xa;;dashed=1;dashPattern=8 8;movable=1;resizable=1;rotatable=1;deletable=1;editable=1;locked=0;connectable=1;" vertex="1" parent="1">
          <mxGeometry x="170" y="-120" width="900" height="970" as="geometry" />
        </mxCell>
        <mxCell id="bgIWfNE-KOHiwSR-T4Z0-104" style="edgeStyle=orthogonalEdgeStyle;rounded=0;orthogonalLoop=1;jettySize=auto;html=1;entryX=0;entryY=0.25;entryDx=0;entryDy=0;" edge="1" parent="1" source="bgIWfNE-KOHiwSR-T4Z0-7" target="bgIWfNE-KOHiwSR-T4Z0-66">
          <mxGeometry relative="1" as="geometry">
            <Array as="points">
              <mxPoint x="140" y="55" />
              <mxPoint x="140" y="780" />
            </Array>
          </mxGeometry>
        </mxCell>
        <mxCell id="bgIWfNE-KOHiwSR-T4Z0-106" style="edgeStyle=orthogonalEdgeStyle;rounded=0;orthogonalLoop=1;jettySize=auto;html=1;entryX=1;entryY=0.5;entryDx=0;entryDy=0;" edge="1" parent="1" source="bgIWfNE-KOHiwSR-T4Z0-7" target="bgIWfNE-KOHiwSR-T4Z0-18">
          <mxGeometry relative="1" as="geometry">
            <Array as="points">
              <mxPoint x="990" y="55" />
              <mxPoint x="990" y="580" />
            </Array>
          </mxGeometry>
        </mxCell>
        <mxCell id="bgIWfNE-KOHiwSR-T4Z0-7" value="" style="sketch=0;outlineConnect=0;fontColor=#232F3E;gradientColor=none;fillColor=#8C4FFF;strokeColor=none;dashed=0;verticalLabelPosition=bottom;verticalAlign=top;align=center;html=1;fontSize=12;fontStyle=0;aspect=fixed;pointerEvents=1;shape=mxgraph.aws4.gateway_load_balancer;" vertex="1" parent="1">
          <mxGeometry x="584" y="25" width="60" height="60" as="geometry" />
        </mxCell>
        <mxCell id="bgIWfNE-KOHiwSR-T4Z0-9" value="" style="fillColor=none;strokeColor=#5A6C86;dashed=1;verticalAlign=top;fontStyle=0;fontColor=#5A6C86;whiteSpace=wrap;html=1;movable=0;resizable=0;rotatable=0;deletable=0;editable=0;locked=1;connectable=0;" vertex="1" parent="1">
          <mxGeometry x="195" y="100" width="845" height="600" as="geometry" />
        </mxCell>
        <mxCell id="bgIWfNE-KOHiwSR-T4Z0-10" value="" style="rounded=1;whiteSpace=wrap;html=1;" vertex="1" parent="1">
          <mxGeometry x="290" y="187" width="120" height="60" as="geometry" />
        </mxCell>
        <mxCell id="bgIWfNE-KOHiwSR-T4Z0-11" value="Account Service" style="text;html=1;align=center;verticalAlign=middle;whiteSpace=wrap;rounded=0;" vertex="1" parent="1">
          <mxGeometry x="310" y="202" width="80" height="30" as="geometry" />
        </mxCell>
        <mxCell id="bgIWfNE-KOHiwSR-T4Z0-12" value="" style="rounded=1;whiteSpace=wrap;html=1;" vertex="1" parent="1">
          <mxGeometry x="771" y="180" width="120" height="60" as="geometry" />
        </mxCell>
        <mxCell id="bgIWfNE-KOHiwSR-T4Z0-13" value="Transaction Service" style="text;html=1;align=center;verticalAlign=middle;whiteSpace=wrap;rounded=0;" vertex="1" parent="1">
          <mxGeometry x="784.5" y="195" width="92" height="30" as="geometry" />
        </mxCell>
        <mxCell id="bgIWfNE-KOHiwSR-T4Z0-14" value="" style="rounded=1;whiteSpace=wrap;html=1;" vertex="1" parent="1">
          <mxGeometry x="547.5" y="390" width="120" height="60" as="geometry" />
        </mxCell>
        <mxCell id="bgIWfNE-KOHiwSR-T4Z0-15" value="Kafka Brokers" style="text;html=1;align=center;verticalAlign=middle;whiteSpace=wrap;rounded=0;" vertex="1" parent="1">
          <mxGeometry x="556.5" y="405" width="100" height="30" as="geometry" />
        </mxCell>
        <mxCell id="bgIWfNE-KOHiwSR-T4Z0-16" value="" style="rounded=1;whiteSpace=wrap;html=1;" vertex="1" parent="1">
          <mxGeometry x="290" y="550" width="120" height="60" as="geometry" />
        </mxCell>
        <mxCell id="bgIWfNE-KOHiwSR-T4Z0-56" style="edgeStyle=orthogonalEdgeStyle;rounded=0;orthogonalLoop=1;jettySize=auto;html=1;dashed=1;exitX=0;exitY=0.5;exitDx=0;exitDy=0;" edge="1" parent="1" source="bgIWfNE-KOHiwSR-T4Z0-16">
          <mxGeometry relative="1" as="geometry">
            <mxPoint x="250" y="520" as="sourcePoint" />
            <mxPoint x="420" y="-170" as="targetPoint" />
            <Array as="points">
              <mxPoint x="120" y="580" />
              <mxPoint x="120" y="-170" />
              <mxPoint x="420" y="-170" />
            </Array>
          </mxGeometry>
        </mxCell>
        <mxCell id="bgIWfNE-KOHiwSR-T4Z0-17" value="Notification Service" style="text;html=1;align=center;verticalAlign=middle;whiteSpace=wrap;rounded=0;" vertex="1" parent="1">
          <mxGeometry x="300" y="565" width="100" height="30" as="geometry" />
        </mxCell>
        <mxCell id="bgIWfNE-KOHiwSR-T4Z0-18" value="" style="rounded=1;whiteSpace=wrap;html=1;" vertex="1" parent="1">
          <mxGeometry x="771" y="550" width="120" height="60" as="geometry" />
        </mxCell>
        <mxCell id="bgIWfNE-KOHiwSR-T4Z0-19" value="Bank Statement&lt;div&gt;Service&lt;/div&gt;" style="text;html=1;align=center;verticalAlign=middle;whiteSpace=wrap;rounded=0;" vertex="1" parent="1">
          <mxGeometry x="784" y="565" width="90" height="30" as="geometry" />
        </mxCell>
        <mxCell id="bgIWfNE-KOHiwSR-T4Z0-21" value="" style="sketch=0;points=[[0,0,0],[0.25,0,0],[0.5,0,0],[0.75,0,0],[1,0,0],[0,1,0],[0.25,1,0],[0.5,1,0],[0.75,1,0],[1,1,0],[0,0.25,0],[0,0.5,0],[0,0.75,0],[1,0.25,0],[1,0.5,0],[1,0.75,0]];outlineConnect=0;fontColor=#232F3E;fillColor=#C925D1;strokeColor=#ffffff;dashed=0;verticalLabelPosition=bottom;verticalAlign=top;align=center;html=1;fontSize=12;fontStyle=0;aspect=fixed;shape=mxgraph.aws4.resourceIcon;resIcon=mxgraph.aws4.database;" vertex="1" parent="1">
          <mxGeometry x="811" y="638" width="38" height="38" as="geometry" />
        </mxCell>
        <mxCell id="bgIWfNE-KOHiwSR-T4Z0-22" value="" style="sketch=0;points=[[0,0,0],[0.25,0,0],[0.5,0,0],[0.75,0,0],[1,0,0],[0,1,0],[0.25,1,0],[0.5,1,0],[0.75,1,0],[1,1,0],[0,0.25,0],[0,0.5,0],[0,0.75,0],[1,0.25,0],[1,0.5,0],[1,0.75,0]];outlineConnect=0;fontColor=#232F3E;fillColor=#C925D1;strokeColor=#ffffff;dashed=0;verticalLabelPosition=bottom;verticalAlign=top;align=center;html=1;fontSize=12;fontStyle=0;aspect=fixed;shape=mxgraph.aws4.resourceIcon;resIcon=mxgraph.aws4.database;" vertex="1" parent="1">
          <mxGeometry x="811" y="276" width="38" height="38" as="geometry" />
        </mxCell>
        <mxCell id="bgIWfNE-KOHiwSR-T4Z0-23" value="" style="sketch=0;points=[[0,0,0],[0.25,0,0],[0.5,0,0],[0.75,0,0],[1,0,0],[0,1,0],[0.25,1,0],[0.5,1,0],[0.75,1,0],[1,1,0],[0,0.25,0],[0,0.5,0],[0,0.75,0],[1,0.25,0],[1,0.5,0],[1,0.75,0]];outlineConnect=0;fontColor=#232F3E;fillColor=#C925D1;strokeColor=#ffffff;dashed=0;verticalLabelPosition=bottom;verticalAlign=top;align=center;html=1;fontSize=12;fontStyle=0;aspect=fixed;shape=mxgraph.aws4.resourceIcon;resIcon=mxgraph.aws4.database;" vertex="1" parent="1">
          <mxGeometry x="331" y="276" width="38" height="38" as="geometry" />
        </mxCell>
        <mxCell id="bgIWfNE-KOHiwSR-T4Z0-24" value="" style="sketch=0;points=[[0,0,0],[0.25,0,0],[0.5,0,0],[0.75,0,0],[1,0,0],[0,1,0],[0.25,1,0],[0.5,1,0],[0.75,1,0],[1,1,0],[0,0.25,0],[0,0.5,0],[0,0.75,0],[1,0.25,0],[1,0.5,0],[1,0.75,0]];outlineConnect=0;fontColor=#232F3E;fillColor=#C925D1;strokeColor=#ffffff;dashed=0;verticalLabelPosition=bottom;verticalAlign=top;align=center;html=1;fontSize=12;fontStyle=0;aspect=fixed;shape=mxgraph.aws4.resourceIcon;resIcon=mxgraph.aws4.documentdb_with_mongodb_compatibility;" vertex="1" parent="1">
          <mxGeometry x="331" y="633" width="40" height="40" as="geometry" />
        </mxCell>
        <mxCell id="bgIWfNE-KOHiwSR-T4Z0-25" value="Mongo DB" style="text;html=1;align=center;verticalAlign=middle;whiteSpace=wrap;rounded=0;" vertex="1" parent="1">
          <mxGeometry x="375" y="642" width="76" height="30" as="geometry" />
        </mxCell>
        <mxCell id="bgIWfNE-KOHiwSR-T4Z0-26" value="MySQL" style="text;html=1;align=center;verticalAlign=middle;whiteSpace=wrap;rounded=0;" vertex="1" parent="1">
          <mxGeometry x="850" y="646" width="60" height="30" as="geometry" />
        </mxCell>
        <mxCell id="bgIWfNE-KOHiwSR-T4Z0-27" value="MySQL" style="text;html=1;align=center;verticalAlign=middle;whiteSpace=wrap;rounded=0;" vertex="1" parent="1">
          <mxGeometry x="838" y="280" width="80" height="30" as="geometry" />
        </mxCell>
        <mxCell id="bgIWfNE-KOHiwSR-T4Z0-28" value="MySQL" style="text;html=1;align=center;verticalAlign=middle;whiteSpace=wrap;rounded=0;" vertex="1" parent="1">
          <mxGeometry x="260" y="284" width="65" height="30" as="geometry" />
        </mxCell>
        <mxCell id="bgIWfNE-KOHiwSR-T4Z0-30" value="" style="endArrow=none;dashed=1;html=1;rounded=0;exitX=0.5;exitY=0;exitDx=0;exitDy=0;exitPerimeter=0;entryX=0.5;entryY=1;entryDx=0;entryDy=0;" edge="1" parent="1" source="bgIWfNE-KOHiwSR-T4Z0-23" target="bgIWfNE-KOHiwSR-T4Z0-10">
          <mxGeometry width="50" height="50" relative="1" as="geometry">
            <mxPoint x="260" y="290" as="sourcePoint" />
            <mxPoint x="310" y="240" as="targetPoint" />
          </mxGeometry>
        </mxCell>
        <mxCell id="bgIWfNE-KOHiwSR-T4Z0-31" value="" style="endArrow=classic;html=1;rounded=0;" edge="1" parent="1" source="bgIWfNE-KOHiwSR-T4Z0-7">
          <mxGeometry relative="1" as="geometry">
            <mxPoint x="509" y="120" as="sourcePoint" />
            <mxPoint x="369" y="180" as="targetPoint" />
          </mxGeometry>
        </mxCell>
        <mxCell id="bgIWfNE-KOHiwSR-T4Z0-35" value="/accounts" style="edgeLabel;html=1;align=center;verticalAlign=middle;resizable=0;points=[];" vertex="1" connectable="0" parent="bgIWfNE-KOHiwSR-T4Z0-31">
          <mxGeometry x="0.0277" y="1" relative="1" as="geometry">
            <mxPoint as="offset" />
          </mxGeometry>
        </mxCell>
        <mxCell id="bgIWfNE-KOHiwSR-T4Z0-36" value="" style="endArrow=classic;html=1;rounded=0;" edge="1" parent="1">
          <mxGeometry relative="1" as="geometry">
            <mxPoint x="644" y="70" as="sourcePoint" />
            <mxPoint x="810" y="170" as="targetPoint" />
          </mxGeometry>
        </mxCell>
        <mxCell id="bgIWfNE-KOHiwSR-T4Z0-37" value="/transactions" style="edgeLabel;resizable=0;html=1;;align=center;verticalAlign=middle;" connectable="0" vertex="1" parent="bgIWfNE-KOHiwSR-T4Z0-36">
          <mxGeometry relative="1" as="geometry">
            <mxPoint x="6" y="10" as="offset" />
          </mxGeometry>
        </mxCell>
        <mxCell id="bgIWfNE-KOHiwSR-T4Z0-39" value="" style="endArrow=none;dashed=1;html=1;dashPattern=1 3;strokeWidth=2;rounded=0;entryX=0;entryY=1;entryDx=0;entryDy=0;" edge="1" parent="1" source="bgIWfNE-KOHiwSR-T4Z0-40" target="bgIWfNE-KOHiwSR-T4Z0-12">
          <mxGeometry width="50" height="50" relative="1" as="geometry">
            <mxPoint x="650" y="380" as="sourcePoint" />
            <mxPoint x="565" y="240" as="targetPoint" />
            <Array as="points" />
          </mxGeometry>
        </mxCell>
        <mxCell id="bgIWfNE-KOHiwSR-T4Z0-44" value="" style="endArrow=none;dashed=1;html=1;rounded=0;exitX=0.5;exitY=0;exitDx=0;exitDy=0;exitPerimeter=0;" edge="1" parent="1" source="bgIWfNE-KOHiwSR-T4Z0-22">
          <mxGeometry width="50" height="50" relative="1" as="geometry">
            <mxPoint x="843" y="260" as="sourcePoint" />
            <mxPoint x="830" y="243" as="targetPoint" />
          </mxGeometry>
        </mxCell>
        <mxCell id="bgIWfNE-KOHiwSR-T4Z0-45" value="" style="endArrow=none;dashed=1;html=1;dashPattern=1 3;strokeWidth=2;rounded=0;exitX=1;exitY=0.5;exitDx=0;exitDy=0;" edge="1" parent="1" source="bgIWfNE-KOHiwSR-T4Z0-46">
          <mxGeometry width="50" height="50" relative="1" as="geometry">
            <mxPoint x="700" y="569.9999999999998" as="sourcePoint" />
            <mxPoint x="770" y="580" as="targetPoint" />
          </mxGeometry>
        </mxCell>
        <mxCell id="bgIWfNE-KOHiwSR-T4Z0-47" value="" style="endArrow=none;dashed=1;html=1;dashPattern=1 3;strokeWidth=2;rounded=0;entryX=0.5;entryY=0;entryDx=0;entryDy=0;" edge="1" parent="1" target="bgIWfNE-KOHiwSR-T4Z0-46">
          <mxGeometry width="50" height="50" relative="1" as="geometry">
            <mxPoint x="610" y="453" as="sourcePoint" />
            <mxPoint x="595" y="490" as="targetPoint" />
          </mxGeometry>
        </mxCell>
        <mxCell id="bgIWfNE-KOHiwSR-T4Z0-46" value="&lt;font style=&quot;font-size: 10px;&quot;&gt;publish event (statement-generated)&lt;/font&gt;" style="text;html=1;align=center;verticalAlign=middle;whiteSpace=wrap;rounded=0;" vertex="1" parent="1">
          <mxGeometry x="545" y="570" width="125" height="30" as="geometry" />
        </mxCell>
        <mxCell id="bgIWfNE-KOHiwSR-T4Z0-48" value="" style="endArrow=none;dashed=1;html=1;dashPattern=1 3;strokeWidth=2;rounded=0;exitX=1;exitY=0.25;exitDx=0;exitDy=0;" edge="1" parent="1" source="bgIWfNE-KOHiwSR-T4Z0-49">
          <mxGeometry width="50" height="50" relative="1" as="geometry">
            <mxPoint x="480" y="450" as="sourcePoint" />
            <mxPoint x="540" y="420" as="targetPoint" />
          </mxGeometry>
        </mxCell>
        <mxCell id="bgIWfNE-KOHiwSR-T4Z0-49" value="&lt;font style=&quot;font-size: 10px;&quot;&gt;listen event (statement-generated)&lt;/font&gt;" style="text;html=1;align=center;verticalAlign=middle;whiteSpace=wrap;rounded=0;" vertex="1" parent="1">
          <mxGeometry x="280" y="440" width="120" height="30" as="geometry" />
        </mxCell>
        <mxCell id="bgIWfNE-KOHiwSR-T4Z0-51" value="" style="endArrow=none;dashed=1;html=1;rounded=0;exitX=0.5;exitY=0;exitDx=0;exitDy=0;exitPerimeter=0;entryX=0.5;entryY=1;entryDx=0;entryDy=0;" edge="1" parent="1" source="bgIWfNE-KOHiwSR-T4Z0-24" target="bgIWfNE-KOHiwSR-T4Z0-16">
          <mxGeometry width="50" height="50" relative="1" as="geometry">
            <mxPoint x="321" y="279" as="sourcePoint" />
            <mxPoint x="320" y="250" as="targetPoint" />
          </mxGeometry>
        </mxCell>
        <mxCell id="bgIWfNE-KOHiwSR-T4Z0-52" value="" style="endArrow=none;dashed=1;html=1;rounded=0;entryX=0.5;entryY=1;entryDx=0;entryDy=0;" edge="1" parent="1">
          <mxGeometry width="50" height="50" relative="1" as="geometry">
            <mxPoint x="830.5" y="635" as="sourcePoint" />
            <mxPoint x="830.5" y="615" as="targetPoint" />
            <Array as="points">
              <mxPoint x="830.5" y="635" />
            </Array>
          </mxGeometry>
        </mxCell>
        <mxCell id="bgIWfNE-KOHiwSR-T4Z0-53" value="&lt;font style=&quot;font-size: 10px;&quot;&gt;listen event (transaction-recorded)&lt;/font&gt;" style="text;html=1;align=center;verticalAlign=middle;whiteSpace=wrap;rounded=0;" vertex="1" parent="1">
          <mxGeometry x="750" y="440" width="160" height="30" as="geometry" />
        </mxCell>
        <mxCell id="bgIWfNE-KOHiwSR-T4Z0-54" value="" style="endArrow=none;dashed=1;html=1;dashPattern=1 3;strokeWidth=2;rounded=0;" edge="1" parent="1">
          <mxGeometry width="50" height="50" relative="1" as="geometry">
            <mxPoint x="674" y="430" as="sourcePoint" />
            <mxPoint x="744" y="450" as="targetPoint" />
          </mxGeometry>
        </mxCell>
        <mxCell id="bgIWfNE-KOHiwSR-T4Z0-55" value="" style="endArrow=none;dashed=1;html=1;dashPattern=1 3;strokeWidth=2;rounded=0;entryX=0.5;entryY=1;entryDx=0;entryDy=0;exitX=0.5;exitY=0;exitDx=0;exitDy=0;" edge="1" parent="1" source="bgIWfNE-KOHiwSR-T4Z0-18" target="bgIWfNE-KOHiwSR-T4Z0-53">
          <mxGeometry width="50" height="50" relative="1" as="geometry">
            <mxPoint x="770" y="570" as="sourcePoint" />
            <mxPoint x="790" y="510" as="targetPoint" />
          </mxGeometry>
        </mxCell>
        <mxCell id="bgIWfNE-KOHiwSR-T4Z0-57" value="Email notification / MailDev" style="text;html=1;align=center;verticalAlign=middle;whiteSpace=wrap;rounded=0;" vertex="1" parent="1">
          <mxGeometry x="170" y="-200" width="160" height="30" as="geometry" />
        </mxCell>
        <mxCell id="bgIWfNE-KOHiwSR-T4Z0-58" value="&lt;font style=&quot;font-size: 10px;&quot;&gt;publish event (account-created)&lt;/font&gt;" style="text;html=1;align=center;verticalAlign=middle;whiteSpace=wrap;rounded=0;" vertex="1" parent="1">
          <mxGeometry x="430" y="300" width="100" height="30" as="geometry" />
        </mxCell>
        <mxCell id="bgIWfNE-KOHiwSR-T4Z0-59" value="" style="endArrow=none;dashed=1;html=1;dashPattern=1 3;strokeWidth=2;rounded=0;" edge="1" parent="1">
          <mxGeometry width="50" height="50" relative="1" as="geometry">
            <mxPoint x="410" y="250" as="sourcePoint" />
            <mxPoint x="455" y="300" as="targetPoint" />
          </mxGeometry>
        </mxCell>
        <mxCell id="bgIWfNE-KOHiwSR-T4Z0-60" value="" style="endArrow=none;dashed=1;html=1;dashPattern=1 3;strokeWidth=2;rounded=0;exitX=0;exitY=0;exitDx=0;exitDy=0;entryX=0.5;entryY=1;entryDx=0;entryDy=0;" edge="1" parent="1" source="bgIWfNE-KOHiwSR-T4Z0-14" target="bgIWfNE-KOHiwSR-T4Z0-58">
          <mxGeometry width="50" height="50" relative="1" as="geometry">
            <mxPoint x="339" y="383" as="sourcePoint" />
            <mxPoint x="389" y="333" as="targetPoint" />
          </mxGeometry>
        </mxCell>
        <mxCell id="bgIWfNE-KOHiwSR-T4Z0-61" value="&lt;font style=&quot;font-size: 10px;&quot;&gt;listen event&amp;nbsp;&lt;/font&gt;&lt;div&gt;&lt;font style=&quot;font-size: 10px;&quot;&gt;(account-created)&lt;/font&gt;&lt;/div&gt;" style="text;html=1;align=center;verticalAlign=middle;whiteSpace=wrap;rounded=0;" vertex="1" parent="1">
          <mxGeometry x="410" y="500" width="110" height="30" as="geometry" />
        </mxCell>
        <mxCell id="bgIWfNE-KOHiwSR-T4Z0-62" value="" style="endArrow=none;dashed=1;html=1;dashPattern=1 3;strokeWidth=2;rounded=0;exitX=0.75;exitY=0;exitDx=0;exitDy=0;" edge="1" parent="1" source="bgIWfNE-KOHiwSR-T4Z0-61">
          <mxGeometry width="50" height="50" relative="1" as="geometry">
            <mxPoint x="450" y="480" as="sourcePoint" />
            <mxPoint x="550" y="450" as="targetPoint" />
          </mxGeometry>
        </mxCell>
        <mxCell id="bgIWfNE-KOHiwSR-T4Z0-63" value="" style="endArrow=none;dashed=1;html=1;dashPattern=1 3;strokeWidth=2;rounded=0;exitX=1;exitY=0.25;exitDx=0;exitDy=0;entryX=0.5;entryY=1;entryDx=0;entryDy=0;" edge="1" parent="1" source="bgIWfNE-KOHiwSR-T4Z0-16" target="bgIWfNE-KOHiwSR-T4Z0-61">
          <mxGeometry width="50" height="50" relative="1" as="geometry">
            <mxPoint x="382.5999999999999" y="513.4000000000001" as="sourcePoint" />
            <mxPoint x="419" y="514.0371991247266" as="targetPoint" />
          </mxGeometry>
        </mxCell>
        <mxCell id="bgIWfNE-KOHiwSR-T4Z0-65" value="" style="shape=cylinder3;whiteSpace=wrap;html=1;boundedLbl=1;backgroundOutline=1;size=15;" vertex="1" parent="1">
          <mxGeometry x="220" y="732" width="100" height="80" as="geometry" />
        </mxCell>
        <mxCell id="bgIWfNE-KOHiwSR-T4Z0-105" style="edgeStyle=orthogonalEdgeStyle;rounded=0;orthogonalLoop=1;jettySize=auto;html=1;exitX=1;exitY=0.25;exitDx=0;exitDy=0;entryX=0;entryY=0.25;entryDx=0;entryDy=0;" edge="1" parent="1" source="bgIWfNE-KOHiwSR-T4Z0-66" target="bgIWfNE-KOHiwSR-T4Z0-88">
          <mxGeometry relative="1" as="geometry" />
        </mxCell>
        <mxCell id="bgIWfNE-KOHiwSR-T4Z0-66" value="Zipkin" style="text;html=1;align=center;verticalAlign=middle;whiteSpace=wrap;rounded=0;" vertex="1" parent="1">
          <mxGeometry x="220" y="772" width="100" height="30" as="geometry" />
        </mxCell>
        <mxCell id="bgIWfNE-KOHiwSR-T4Z0-67" value="Distribuit Tracing" style="text;html=1;align=center;verticalAlign=middle;whiteSpace=wrap;rounded=0;" vertex="1" parent="1">
          <mxGeometry x="220" y="812" width="100" height="30" as="geometry" />
        </mxCell>
        <mxCell id="bgIWfNE-KOHiwSR-T4Z0-70" value="" style="endArrow=none;dashed=1;html=1;dashPattern=1 3;strokeWidth=2;rounded=0;exitX=0.5;exitY=0;exitDx=0;exitDy=0;exitPerimeter=0;" edge="1" parent="1" source="bgIWfNE-KOHiwSR-T4Z0-65">
          <mxGeometry width="50" height="50" relative="1" as="geometry">
            <mxPoint x="220" y="742" as="sourcePoint" />
            <mxPoint x="270" y="700" as="targetPoint" />
          </mxGeometry>
        </mxCell>
        <mxCell id="bgIWfNE-KOHiwSR-T4Z0-71" value="" style="rounded=1;whiteSpace=wrap;html=1;" vertex="1" parent="1">
          <mxGeometry x="554" y="758" width="120" height="60" as="geometry" />
        </mxCell>
        <mxCell id="bgIWfNE-KOHiwSR-T4Z0-72" value="" style="rounded=1;whiteSpace=wrap;html=1;" vertex="1" parent="1">
          <mxGeometry x="828" y="758" width="120" height="60" as="geometry" />
        </mxCell>
        <mxCell id="bgIWfNE-KOHiwSR-T4Z0-73" value="Eureka Server" style="text;html=1;align=center;verticalAlign=middle;whiteSpace=wrap;rounded=0;" vertex="1" parent="1">
          <mxGeometry x="569" y="776" width="100" height="30" as="geometry" />
        </mxCell>
        <mxCell id="bgIWfNE-KOHiwSR-T4Z0-74" value="Config Server" style="text;html=1;align=center;verticalAlign=middle;whiteSpace=wrap;rounded=0;" vertex="1" parent="1">
          <mxGeometry x="838" y="773" width="100" height="30" as="geometry" />
        </mxCell>
        <mxCell id="bgIWfNE-KOHiwSR-T4Z0-75" value="" style="endArrow=none;dashed=1;html=1;dashPattern=1 3;strokeWidth=2;rounded=0;exitX=0.5;exitY=0;exitDx=0;exitDy=0;" edge="1" parent="1" source="bgIWfNE-KOHiwSR-T4Z0-71">
          <mxGeometry width="50" height="50" relative="1" as="geometry">
            <mxPoint x="574" y="748" as="sourcePoint" />
            <mxPoint x="614" y="698" as="targetPoint" />
          </mxGeometry>
        </mxCell>
        <mxCell id="bgIWfNE-KOHiwSR-T4Z0-76" value="" style="endArrow=none;dashed=1;html=1;dashPattern=1 3;strokeWidth=2;rounded=0;entryX=0;entryY=0.5;entryDx=0;entryDy=0;exitX=1;exitY=0.5;exitDx=0;exitDy=0;" edge="1" parent="1" source="bgIWfNE-KOHiwSR-T4Z0-71" target="bgIWfNE-KOHiwSR-T4Z0-72">
          <mxGeometry width="50" height="50" relative="1" as="geometry">
            <mxPoint x="520" y="710" as="sourcePoint" />
            <mxPoint x="570" y="660" as="targetPoint" />
          </mxGeometry>
        </mxCell>
        <mxCell id="bgIWfNE-KOHiwSR-T4Z0-78" value="" style="endArrow=none;dashed=1;html=1;dashPattern=1 3;strokeWidth=2;rounded=0;exitX=0.5;exitY=0;exitDx=0;exitDy=0;" edge="1" parent="1">
          <mxGeometry width="50" height="50" relative="1" as="geometry">
            <mxPoint x="887.5" y="758" as="sourcePoint" />
            <mxPoint x="887.5" y="698" as="targetPoint" />
          </mxGeometry>
        </mxCell>
        <mxCell id="bgIWfNE-KOHiwSR-T4Z0-79" value="Admin" style="sketch=0;outlineConnect=0;fontColor=#232F3E;gradientColor=none;fillColor=#232F3D;strokeColor=none;dashed=0;verticalLabelPosition=bottom;verticalAlign=top;align=center;html=1;fontSize=12;fontStyle=0;aspect=fixed;pointerEvents=1;shape=mxgraph.aws4.authenticated_user;" vertex="1" parent="1">
          <mxGeometry x="771" y="-200" width="50" height="50" as="geometry" />
        </mxCell>
        <mxCell id="bgIWfNE-KOHiwSR-T4Z0-80" value="Client" style="sketch=0;outlineConnect=0;fontColor=#232F3E;gradientColor=none;fillColor=#232F3D;strokeColor=none;dashed=0;verticalLabelPosition=bottom;verticalAlign=top;align=center;html=1;fontSize=12;fontStyle=0;aspect=fixed;pointerEvents=1;shape=mxgraph.aws4.authenticated_user;" vertex="1" parent="1">
          <mxGeometry x="430" y="-200" width="50" height="50" as="geometry" />
        </mxCell>
        <mxCell id="bgIWfNE-KOHiwSR-T4Z0-81" value="" style="endArrow=classic;startArrow=classic;html=1;rounded=0;" edge="1" parent="1">
          <mxGeometry width="50" height="50" relative="1" as="geometry">
            <mxPoint x="594" y="-73.75" as="sourcePoint" />
            <mxPoint x="475" y="-150" as="targetPoint" />
            <Array as="points">
              <mxPoint x="520" y="-120" />
            </Array>
          </mxGeometry>
        </mxCell>
        <mxCell id="bgIWfNE-KOHiwSR-T4Z0-82" value="" style="endArrow=classic;startArrow=classic;html=1;rounded=0;" edge="1" parent="1">
          <mxGeometry width="50" height="50" relative="1" as="geometry">
            <mxPoint x="634" y="-73.93312101910828" as="sourcePoint" />
            <mxPoint x="766" y="-147.5" as="targetPoint" />
            <Array as="points" />
          </mxGeometry>
        </mxCell>
        <mxCell id="bgIWfNE-KOHiwSR-T4Z0-84" value="/statements" style="edgeLabel;resizable=0;html=1;;align=center;verticalAlign=middle;" connectable="0" vertex="1" parent="1">
          <mxGeometry x="680.0045885274676" y="-110.00166369859019" as="geometry">
            <mxPoint x="18" y="4" as="offset" />
          </mxGeometry>
        </mxCell>
        <mxCell id="bgIWfNE-KOHiwSR-T4Z0-87" value="" style="shape=cylinder3;whiteSpace=wrap;html=1;boundedLbl=1;backgroundOutline=1;size=15;" vertex="1" parent="1">
          <mxGeometry x="375" y="733" width="100" height="80" as="geometry" />
        </mxCell>
        <mxCell id="bgIWfNE-KOHiwSR-T4Z0-88" value="Splunk" style="text;html=1;align=center;verticalAlign=middle;whiteSpace=wrap;rounded=0;" vertex="1" parent="1">
          <mxGeometry x="375" y="773" width="100" height="30" as="geometry" />
        </mxCell>
        <mxCell id="bgIWfNE-KOHiwSR-T4Z0-89" value="" style="endArrow=none;dashed=1;html=1;dashPattern=1 3;strokeWidth=2;rounded=0;exitX=0.5;exitY=0;exitDx=0;exitDy=0;exitPerimeter=0;" edge="1" parent="1" source="bgIWfNE-KOHiwSR-T4Z0-87">
          <mxGeometry width="50" height="50" relative="1" as="geometry">
            <mxPoint x="375" y="743" as="sourcePoint" />
            <mxPoint x="425" y="701" as="targetPoint" />
          </mxGeometry>
        </mxCell>
        <mxCell id="bgIWfNE-KOHiwSR-T4Z0-90" value="Logging" style="text;html=1;align=center;verticalAlign=middle;whiteSpace=wrap;rounded=0;" vertex="1" parent="1">
          <mxGeometry x="375" y="813" width="100" height="30" as="geometry" />
        </mxCell>
        <mxCell id="bgIWfNE-KOHiwSR-T4Z0-92" value="" style="endArrow=none;dashed=1;html=1;dashPattern=1 3;strokeWidth=2;rounded=0;entryX=0.405;entryY=1.06;entryDx=0;entryDy=0;entryPerimeter=0;" edge="1" parent="1" target="bgIWfNE-KOHiwSR-T4Z0-40">
          <mxGeometry width="50" height="50" relative="1" as="geometry">
            <mxPoint x="650" y="380" as="sourcePoint" />
            <mxPoint x="771" y="240" as="targetPoint" />
            <Array as="points" />
          </mxGeometry>
        </mxCell>
        <mxCell id="bgIWfNE-KOHiwSR-T4Z0-40" value="&lt;font style=&quot;font-size: 10px;&quot;&gt;publish event (transaction-recorded)&lt;/font&gt;" style="text;html=1;align=center;verticalAlign=middle;whiteSpace=wrap;rounded=0;" vertex="1" parent="1">
          <mxGeometry x="625" y="300" width="160" height="30" as="geometry" />
        </mxCell>
        <mxCell id="bgIWfNE-KOHiwSR-T4Z0-96" value="" style="endArrow=none;dashed=1;html=1;dashPattern=1 3;strokeWidth=2;rounded=0;entryX=0.5;entryY=1;entryDx=0;entryDy=0;exitX=0.602;exitY=-0.013;exitDx=0;exitDy=0;exitPerimeter=0;" edge="1" parent="1" target="bgIWfNE-KOHiwSR-T4Z0-49">
          <mxGeometry width="50" height="50" relative="1" as="geometry">
            <mxPoint x="341" y="544" as="sourcePoint" />
            <mxPoint x="339" y="500" as="targetPoint" />
          </mxGeometry>
        </mxCell>
        <mxCell id="bgIWfNE-KOHiwSR-T4Z0-101" style="edgeStyle=orthogonalEdgeStyle;rounded=0;orthogonalLoop=1;jettySize=auto;html=1;" edge="1" parent="1" source="bgIWfNE-KOHiwSR-T4Z0-97" target="bgIWfNE-KOHiwSR-T4Z0-7">
          <mxGeometry relative="1" as="geometry" />
        </mxCell>
        <mxCell id="bgIWfNE-KOHiwSR-T4Z0-97" value="" style="sketch=0;outlineConnect=0;fontColor=#232F3E;gradientColor=none;fillColor=#8C4FFF;strokeColor=none;dashed=0;verticalLabelPosition=bottom;verticalAlign=top;align=center;html=1;fontSize=12;fontStyle=0;aspect=fixed;pointerEvents=1;shape=mxgraph.aws4.application_load_balancer;" vertex="1" parent="1">
          <mxGeometry x="589" y="-80" width="50" height="50" as="geometry" />
        </mxCell>
        <mxCell id="bgIWfNE-KOHiwSR-T4Z0-98" value="" style="rounded=1;whiteSpace=wrap;html=1;" vertex="1" parent="1">
          <mxGeometry x="783" y="-48" width="242" height="88" as="geometry" />
        </mxCell>
        <mxCell id="bgIWfNE-KOHiwSR-T4Z0-8" value="Spring Cloud Gateway" style="text;html=1;align=center;verticalAlign=middle;whiteSpace=wrap;rounded=0;" vertex="1" parent="1">
          <mxGeometry x="824" y="-78" width="160" height="30" as="geometry" />
        </mxCell>
        <mxCell id="bgIWfNE-KOHiwSR-T4Z0-100" value="Traffic Routing&lt;div&gt;Security&lt;/div&gt;&lt;div&gt;Caching&lt;/div&gt;&lt;div&gt;Monitoring &amp;amp; Logging&lt;/div&gt;&lt;div&gt;Resilience4J&lt;/div&gt;" style="text;html=1;align=center;verticalAlign=middle;whiteSpace=wrap;rounded=0;" vertex="1" parent="1">
          <mxGeometry x="821" y="-19" width="160" height="30" as="geometry" />
        </mxCell>
        <mxCell id="bgIWfNE-KOHiwSR-T4Z0-102" value="" style="rounded=1;whiteSpace=wrap;html=1;" vertex="1" parent="1">
          <mxGeometry x="172" y="-120" width="159" height="45" as="geometry" />
        </mxCell>
        <mxCell id="bgIWfNE-KOHiwSR-T4Z0-5" value="Spring cloud microservice" style="text;html=1;align=center;verticalAlign=middle;whiteSpace=wrap;rounded=0;" vertex="1" parent="1">
          <mxGeometry x="171" y="-110" width="160" height="30" as="geometry" />
        </mxCell>
        <mxCell id="bgIWfNE-KOHiwSR-T4Z0-103" value="NLB" style="text;html=1;align=center;verticalAlign=middle;whiteSpace=wrap;rounded=0;" vertex="1" parent="1">
          <mxGeometry x="530" y="-70" width="56" height="30" as="geometry" />
        </mxCell>
        <mxCell id="bgIWfNE-KOHiwSR-T4Z0-107" value="/statements" style="edgeLabel;resizable=0;html=1;;align=center;verticalAlign=middle;" connectable="0" vertex="1" parent="1">
          <mxGeometry x="970.0045885274676" y="404.99833630140984" as="geometry">
            <mxPoint x="18" y="4" as="offset" />
          </mxGeometry>
        </mxCell>
      </root>
    </mxGraphModel>
  </diagram>
</mxfile>
